<?xml version="1.0" standalone="no"?><!DOCTYPE svg PUBLIC "-//W3C//DTD SVG 1.1//EN" "http://www.w3.org/Graphics/SVG/1.1/DTD/svg11.dtd"><svg t="1509605297239" class="icon" style="" viewBox="0 0 1024 1024" version="1.1" xmlns="http://www.w3.org/2000/svg" p-id="8963" xmlns:xlink="http://www.w3.org/1999/xlink" width="30" height="30"><defs><style type="text/css"></style></defs><path d="M1015.286 1024zM459.405 871.892q113.8 0 210.657-55.815t153.197-152.635T879.6 452.26t-56.341-211.182T670.062 87.881 459.405 31.54 248.748 87.881 95.551 241.078 39.21 452.26t56.341 211.182 153.197 152.635 210.657 55.815z m0.001-772.526q96.294 0 177.286 47.061t128.579 128.579 47.587 177.286-47.587 177.286-128.579 128.579-177.286 47.061-177.286-47.061-128.019-128.579-47.061-177.812q0-71.118 27.908-136.771t74.969-112.718 112.157-74.969T459.407 99.4z m-184.92 444.25l190.419-190.419 190.419 190.419q9.839 9.839 23.531 9.839t23.531-9.839 9.839-24.09-9.839-24.09L488.997 282.047q-9.839-9.839-23.531-9.839t-23.531 9.839L227.461 495.436q-4.378 5.463-7.109 11.486t-2.731 12.571 2.731 12.571 7.109 11.486q6.585 5.463 15.337 8.193t17.507 0 14.217-8.193z" fill="#75FF87" p-id="8964"></path></svg>